<svg id="visual" viewBox="0 0 900 450" width="900" height="450" xmlns="http://www.w3.org/2000/svg" xmlns:xlink="http://www.w3.org/1999/xlink" version="1.1"><rect x="0" y="0" width="900" height="450" fill="#7FC2C2"></rect>
<path d="M0 280L13.7 277.7C27.3 275.3 54.7 270.7 82 264C109.3 257.3 136.7 248.7 163.8 245.3C191 242 218 244 245.2 238C272.3 232 299.7 218 327 223.3C354.3 228.7 381.7 253.3 409 266.2C436.3 279 463.7 280 491 272C518.3 264 545.7 247 573 234.2C600.3 221.3 627.7 212.7 654.8 217.8C682 223 709 242 736.2 252.8C763.3 263.7 790.7 266.3 818 259.5C845.3 252.7 872.7 236.3 886.3 228.2L900 220L900 451L886.3 451C872.7 451 845.3 451 818 451C790.7 451 763.3 451 736.2 451C709 451 682 451 654.8 451C627.7 451 600.3 451 573 451C545.7 451 518.3 451 491 451C463.7 451 436.3 451 409 451C381.7 451 354.3 451 327 451C299.7 451 272.3 451 245.2 451C218 451 191 451 163.8 451C136.7 451 109.3 451 82 451C54.7 451 27.3 451 13.7 451L0 451Z" fill="#e1774b"></path>
<path d="M0 270L13.7 276.8C27.3 283.7 54.7 297.3 82 304.7C109.3 312 136.7 313 163.8 307.7C191 302.3 218 290.7 245.2 285.3C272.3 280 299.7 281 327 286.2C354.3 291.3 381.7 300.7 409 303.2C436.3 305.7 463.7 301.3 491 302.3C518.3 303.3 545.7 309.7 573 309.7C600.3 309.7 627.7 303.3 654.8 300.5C682 297.7 709 298.3 736.2 300C763.3 301.7 790.7 304.3 818 306.5C845.3 308.7 872.7 310.3 886.3 311.2L900 312L900 451L886.3 451C872.7 451 845.3 451 818 451C790.7 451 763.3 451 736.2 451C709 451 682 451 654.8 451C627.7 451 600.3 451 573 451C545.7 451 518.3 451 491 451C463.7 451 436.3 451 409 451C381.7 451 354.3 451 327 451C299.7 451 272.3 451 245.2 451C218 451 191 451 163.8 451C136.7 451 109.3 451 82 451C54.7 451 27.3 451 13.7 451L0 451Z" fill="#ed974b"></path>
<path d="M0 334L13.7 335C27.3 336 54.7 338 82 336.7C109.3 335.3 136.7 330.7 163.8 326.5C191 322.3 218 318.7 245.2 319.8C272.3 321 299.7 327 327 330.3C354.3 333.7 381.7 334.3 409 339.7C436.3 345 463.7 355 491 356.2C518.3 357.3 545.7 349.7 573 343.2C600.3 336.7 627.7 331.3 654.8 332C682 332.7 709 339.3 736.2 336.2C763.3 333 790.7 320 818 316.7C845.3 313.3 872.7 319.7 886.3 322.8L900 326L900 451L886.3 451C872.7 451 845.3 451 818 451C790.7 451 763.3 451 736.2 451C709 451 682 451 654.8 451C627.7 451 600.3 451 573 451C545.7 451 518.3 451 491 451C463.7 451 436.3 451 409 451C381.7 451 354.3 451 327 451C299.7 451 272.3 451 245.2 451C218 451 191 451 163.8 451C136.7 451 109.3 451 82 451C54.7 451 27.3 451 13.7 451L0 451Z" fill="#f4b951"></path>
<path d="M0 362L13.7 367.3C27.3 372.7 54.7 383.3 82 385.7C109.3 388 136.7 382 163.8 381.5C191 381 218 386 245.2 388.8C272.3 391.7 299.7 392.3 327 391C354.3 389.7 381.7 386.3 409 389C436.3 391.7 463.7 400.3 491 396.8C518.3 393.3 545.7 377.7 573 370C600.3 362.3 627.7 362.7 654.8 363.3C682 364 709 365 736.2 367.8C763.3 370.7 790.7 375.3 818 378.2C845.3 381 872.7 382 886.3 382.5L900 383L900 451L886.3 451C872.7 451 845.3 451 818 451C790.7 451 763.3 451 736.2 451C709 451 682 451 654.8 451C627.7 451 600.3 451 573 451C545.7 451 518.3 451 491 451C463.7 451 436.3 451 409 451C381.7 451 354.3 451 327 451C299.7 451 272.3 451 245.2 451C218 451 191 451 163.8 451C136.7 451 109.3 451 82 451C54.7 451 27.3 451 13.7 451L0 451Z" fill="#f4db60"></path></svg>
